<svg xmlns="http://www.w3.org/2000/svg" width="120" height="120" viewBox="0 0 120 120"><defs><mask id="accub" width="2" height="2" x="-1" y="-1"><path fill="#fff" d="M20 13h80v80H20z"/><path d="M60 13c22.091 0 40 17.909 40 40S82.09 93 60 93 20 75.09 20 53s17.909-40 40-40z"/></mask><filter id="accua" width="140" height="147" x="-10" y="-17" filterUnits="userSpaceOnUse"><feOffset dy="7" in="SourceGraphic" result="FeOffset1034Out"/><feGaussianBlur in="FeOffset1034Out" result="FeGaussianBlur1035Out" stdDeviation="8 8"/></filter></defs><g><g><g><g filter="url(#accua)"><path fill="none" d="M60 13c22.091 0 40 17.909 40 40S82.09 93 60 93 20 75.09 20 53s17.909-40 40-40z" mask="url(&quot;#accub&quot;)"/><path fill="#a8a8a8" fill-opacity=".3" d="M60 13c22.091 0 40 17.909 40 40S82.09 93 60 93 20 75.09 20 53s17.909-40 40-40z"/></g><path fill="#fff" d="M60 13c22.091 0 40 17.909 40 40S82.09 93 60 93 20 75.09 20 53s17.909-40 40-40z"/></g><g><g><text dominant-baseline="text-before-edge" style="line-height:26px" fill="#fe3e57" font-family="'FontAwesome5Free-Solid','FontAwesome5Free-Solid'" font-size="22" font-style="none" font-weight="400" transform="translate(50 41)"><tspan style="font-kerning:normal"></tspan></text></g></g></g></g></svg>