<svg xmlns="http://www.w3.org/2000/svg" width="192" height="642" viewBox="0 0 192 642"><defs><mask id="v3rvb" width="2" height="2" x="-1" y="-1"><path fill="#fff" d="M104 484h35v36h-35z"/><path d="M121.484 484c9.674 0 17.516 8.059 17.516 18s-7.842 18-17.516 18c-9.673 0-17.515-8.059-17.515-18s7.842-18 17.515-18z"/></mask><filter id="v3rva" width="65" height="69" x="89" y="469" filterUnits="userSpaceOnUse"><feOffset dy="3" in="SourceGraphic" result="FeOffset1209Out"/><feGaussianBlur in="FeOffset1209Out" result="FeGaussianBlur1210Out" stdDeviation="2 2"/></filter><clipPath id="v3rvc"><path fill="#fff" d="M121.484 484c9.674 0 17.516 8.059 17.516 18s-7.842 18-17.516 18c-9.673 0-17.515-8.059-17.515-18s7.842-18 17.515-18z"/></clipPath><mask id="v3rve" width="2" height="2" x="-1" y="-1"><path fill="#fff" d="M77 154h11v11H77z"/><path d="M82.469 154a5.5 5.5 0 1 1 0 11 5.5 5.5 0 0 1 0-11z"/></mask><filter id="v3rvd" width="41" height="44" x="62" y="139" filterUnits="userSpaceOnUse"><feOffset dy="3" in="SourceGraphic" result="FeOffset1227Out"/><feGaussianBlur in="FeOffset1227Out" result="FeGaussianBlur1228Out" stdDeviation="2 2"/></filter><clipPath id="v3rvf"><path fill="#fff" d="M82.469 154a5.5 5.5 0 1 1 0 11 5.5 5.5 0 0 1 0-11z"/></clipPath><mask id="v3rvh" width="2" height="2" x="-1" y="-1"><path fill="#fff" d="M169 621h13v13h-13z"/><path d="M173.92 627.527l-3.795-3.957a1.273 1.273 0 0 1 0-1.747 1.15 1.15 0 0 1 1.676 0l3.795 3.957 3.795-3.957a1.15 1.15 0 0 1 1.675 0 1.273 1.273 0 0 1 0 1.747l-3.795 3.957 3.795 3.958a1.273 1.273 0 0 1 0 1.747 1.15 1.15 0 0 1-1.675 0l-3.795-3.957-3.795 3.957a1.15 1.15 0 0 1-1.676 0 1.273 1.273 0 0 1 0-1.747z"/></mask><filter id="v3rvg" width="43" height="46" x="154" y="606" filterUnits="userSpaceOnUse"><feOffset dy="3" in="SourceGraphic" result="FeOffset1245Out"/><feGaussianBlur in="FeOffset1245Out" result="FeGaussianBlur1246Out" stdDeviation="2 2"/></filter><mask id="v3rvj" width="2" height="2" x="-1" y="-1"><path fill="#fff" d="M175 373h12v12h-12z"/><path d="M180.988 373.343l5.658 5.657-5.658 5.656-5.657-5.656z"/></mask><filter id="v3rvi" width="42" height="45" x="160" y="358" filterUnits="userSpaceOnUse"><feOffset dy="3" in="SourceGraphic" result="FeOffset1261Out"/><feGaussianBlur in="FeOffset1261Out" result="FeGaussianBlur1262Out" stdDeviation="2 2"/></filter><mask id="v3rvl" width="2" height="2" x="-1" y="-1"><path fill="#fff" d="M5 290h12v13H5z"/><path d="M9.275 296.194l-3.795-3.957a1.273 1.273 0 0 1 0-1.747 1.151 1.151 0 0 1 1.675 0l3.796 3.957 3.795-3.957a1.151 1.151 0 0 1 1.675 0 1.273 1.273 0 0 1 0 1.747l-3.795 3.957 3.795 3.958a1.273 1.273 0 0 1 0 1.746 1.151 1.151 0 0 1-1.675 0l-3.795-3.957-3.796 3.957a1.151 1.151 0 0 1-1.675 0 1.273 1.273 0 0 1 0-1.746z"/></mask><filter id="v3rvk" width="42" height="46" x="-10" y="275" filterUnits="userSpaceOnUse"><feOffset dy="3" in="SourceGraphic" result="FeOffset1277Out"/><feGaussianBlur in="FeOffset1277Out" result="FeGaussianBlur1278Out" stdDeviation="2 2"/></filter><mask id="v3rvn" width="2" height="2" x="-1" y="-1"><path fill="#fff" d="M145 2h13v13h-13z"/><path d="M149.566 8.55l-3.795-3.958a1.273 1.273 0 0 1 0-1.747 1.15 1.15 0 0 1 1.676 0l3.795 3.957 3.795-3.957a1.15 1.15 0 0 1 1.675 0 1.273 1.273 0 0 1 0 1.747l-3.795 3.957 3.795 3.957a1.274 1.274 0 0 1 0 1.748 1.15 1.15 0 0 1-1.675 0l-3.795-3.957-3.795 3.957a1.15 1.15 0 0 1-1.676 0 1.274 1.274 0 0 1 0-1.748z"/></mask><filter id="v3rvm" width="43" height="46" x="130" y="-13" filterUnits="userSpaceOnUse"><feOffset dy="3" in="SourceGraphic" result="FeOffset1293Out"/><feGaussianBlur in="FeOffset1293Out" result="FeGaussianBlur1294Out" stdDeviation="2 2"/></filter></defs><g><g><g filter="url(#v3rva)"><path fill="none" d="M121.484 484c9.674 0 17.516 8.059 17.516 18s-7.842 18-17.516 18c-9.673 0-17.515-8.059-17.515-18s7.842-18 17.515-18z" mask="url(&quot;#v3rvb&quot;)"/><path fill="#fe3e57" fill-opacity=".4" d="M121.484 484c9.674 0 17.516 8.059 17.516 18s-7.842 18-17.516 18c-9.673 0-17.515-8.059-17.515-18s7.842-18 17.515-18z"/></g><path fill="none" stroke="#fe3e57" stroke-miterlimit="20" stroke-width="4" d="M121.484 484c9.674 0 17.516 8.059 17.516 18s-7.842 18-17.516 18c-9.673 0-17.515-8.059-17.515-18s7.842-18 17.515-18z" clip-path="url(&quot;#v3rvc&quot;)"/></g><g><g filter="url(#v3rvd)"><path fill="none" d="M82.469 154a5.5 5.5 0 1 1 0 11 5.5 5.5 0 0 1 0-11z" mask="url(&quot;#v3rve&quot;)"/><path fill="#34c3ff" fill-opacity=".4" d="M82.469 154a5.5 5.5 0 1 1 0 11 5.5 5.5 0 0 1 0-11z"/></g><path fill="none" stroke="#34c3ff" stroke-miterlimit="20" stroke-width="4" d="M82.469 154a5.5 5.5 0 1 1 0 11 5.5 5.5 0 0 1 0-11z" clip-path="url(&quot;#v3rvf&quot;)"/></g><g><g filter="url(#v3rvg)"><path fill="none" d="M173.92 627.527l-3.795-3.957a1.273 1.273 0 0 1 0-1.747 1.15 1.15 0 0 1 1.676 0l3.795 3.957 3.795-3.957a1.15 1.15 0 0 1 1.675 0 1.273 1.273 0 0 1 0 1.747l-3.795 3.957 3.795 3.958a1.273 1.273 0 0 1 0 1.747 1.15 1.15 0 0 1-1.675 0l-3.795-3.957-3.795 3.957a1.15 1.15 0 0 1-1.676 0 1.273 1.273 0 0 1 0-1.747z" mask="url(&quot;#v3rvh&quot;)"/><path fill="#34c3ff" fill-opacity=".4" d="M173.92 627.527l-3.795-3.957a1.273 1.273 0 0 1 0-1.747 1.15 1.15 0 0 1 1.676 0l3.795 3.957 3.795-3.957a1.15 1.15 0 0 1 1.675 0 1.273 1.273 0 0 1 0 1.747l-3.795 3.957 3.795 3.958a1.273 1.273 0 0 1 0 1.747 1.15 1.15 0 0 1-1.675 0l-3.795-3.957-3.795 3.957a1.15 1.15 0 0 1-1.676 0 1.273 1.273 0 0 1 0-1.747z"/></g><path fill="#34c3ff" d="M173.92 627.527l-3.795-3.957a1.273 1.273 0 0 1 0-1.747 1.15 1.15 0 0 1 1.676 0l3.795 3.957 3.795-3.957a1.15 1.15 0 0 1 1.675 0 1.273 1.273 0 0 1 0 1.747l-3.795 3.957 3.795 3.958a1.273 1.273 0 0 1 0 1.747 1.15 1.15 0 0 1-1.675 0l-3.795-3.957-3.795 3.957a1.15 1.15 0 0 1-1.676 0 1.273 1.273 0 0 1 0-1.747z"/></g><g><g filter="url(#v3rvi)"><path fill="none" d="M180.988 373.343l5.658 5.657-5.658 5.656-5.657-5.656z" mask="url(&quot;#v3rvj&quot;)"/><path fill="#5800e4" fill-opacity=".4" d="M180.988 373.343l5.658 5.657-5.658 5.656-5.657-5.656z"/></g><path fill="#5800e4" d="M180.988 373.343l5.658 5.657-5.658 5.656-5.657-5.656z"/></g><g><g filter="url(#v3rvk)"><path fill="none" d="M9.275 296.194l-3.795-3.957a1.273 1.273 0 0 1 0-1.747 1.151 1.151 0 0 1 1.675 0l3.796 3.957 3.795-3.957a1.151 1.151 0 0 1 1.675 0 1.273 1.273 0 0 1 0 1.747l-3.795 3.957 3.795 3.958a1.273 1.273 0 0 1 0 1.746 1.151 1.151 0 0 1-1.675 0l-3.795-3.957-3.796 3.957a1.151 1.151 0 0 1-1.675 0 1.273 1.273 0 0 1 0-1.746z" mask="url(&quot;#v3rvl&quot;)"/><path fill="#ffb534" fill-opacity=".4" d="M9.275 296.194l-3.795-3.957a1.273 1.273 0 0 1 0-1.747 1.151 1.151 0 0 1 1.675 0l3.796 3.957 3.795-3.957a1.151 1.151 0 0 1 1.675 0 1.273 1.273 0 0 1 0 1.747l-3.795 3.957 3.795 3.958a1.273 1.273 0 0 1 0 1.746 1.151 1.151 0 0 1-1.675 0l-3.795-3.957-3.796 3.957a1.151 1.151 0 0 1-1.675 0 1.273 1.273 0 0 1 0-1.746z"/></g><path fill="#ffb534" d="M9.275 296.194l-3.795-3.957a1.273 1.273 0 0 1 0-1.747 1.151 1.151 0 0 1 1.675 0l3.796 3.957 3.795-3.957a1.151 1.151 0 0 1 1.675 0 1.273 1.273 0 0 1 0 1.747l-3.795 3.957 3.795 3.958a1.273 1.273 0 0 1 0 1.746 1.151 1.151 0 0 1-1.675 0l-3.795-3.957-3.796 3.957a1.151 1.151 0 0 1-1.675 0 1.273 1.273 0 0 1 0-1.746z"/></g><g><g filter="url(#v3rvm)"><path fill="none" d="M149.566 8.55l-3.795-3.958a1.273 1.273 0 0 1 0-1.747 1.15 1.15 0 0 1 1.676 0l3.795 3.957 3.795-3.957a1.15 1.15 0 0 1 1.675 0 1.273 1.273 0 0 1 0 1.747l-3.795 3.957 3.795 3.957a1.274 1.274 0 0 1 0 1.748 1.15 1.15 0 0 1-1.675 0l-3.795-3.957-3.795 3.957a1.15 1.15 0 0 1-1.676 0 1.274 1.274 0 0 1 0-1.748z" mask="url(&quot;#v3rvn&quot;)"/><path fill="#fe3e57" fill-opacity=".4" d="M149.566 8.55l-3.795-3.958a1.273 1.273 0 0 1 0-1.747 1.15 1.15 0 0 1 1.676 0l3.795 3.957 3.795-3.957a1.15 1.15 0 0 1 1.675 0 1.273 1.273 0 0 1 0 1.747l-3.795 3.957 3.795 3.957a1.274 1.274 0 0 1 0 1.748 1.15 1.15 0 0 1-1.675 0l-3.795-3.957-3.795 3.957a1.15 1.15 0 0 1-1.676 0 1.274 1.274 0 0 1 0-1.748z"/></g><path fill="#fe3e57" d="M149.566 8.55l-3.795-3.958a1.273 1.273 0 0 1 0-1.747 1.15 1.15 0 0 1 1.676 0l3.795 3.957 3.795-3.957a1.15 1.15 0 0 1 1.675 0 1.273 1.273 0 0 1 0 1.747l-3.795 3.957 3.795 3.957a1.274 1.274 0 0 1 0 1.748 1.15 1.15 0 0 1-1.675 0l-3.795-3.957-3.795 3.957a1.15 1.15 0 0 1-1.676 0 1.274 1.274 0 0 1 0-1.748z"/></g></g></svg>