<svg xmlns="http://www.w3.org/2000/svg" width="157" height="546" viewBox="0 0 157 546"><defs><mask id="ctl2b" width="2" height="2" x="-1" y="-1"><path fill="#fff" d="M45 138h28v29H45z"/><path d="M59.328 138.937c7.43 0 13.453 6.198 13.453 13.844 0 7.646-6.023 13.844-13.453 13.844s-13.453-6.198-13.453-13.844c0-7.646 6.023-13.844 13.453-13.844z"/></mask><filter id="ctl2a" width="58" height="62" x="30" y="123" filterUnits="userSpaceOnUse"><feOffset dy="3" in="SourceGraphic" result="FeOffset1089Out"/><feGaussianBlur in="FeOffset1089Out" result="FeGaussianBlur1090Out" stdDeviation="2 2"/></filter><clipPath id="ctl2c"><path fill="#fff" d="M59.328 138.937c7.43 0 13.453 6.198 13.453 13.844 0 7.646-6.023 13.844-13.453 13.844s-13.453-6.198-13.453-13.844c0-7.646 6.023-13.844 13.453-13.844z"/></clipPath><mask id="ctl2e" width="2" height="2" x="-1" y="-1"><path fill="#fff" d="M84 396h9v9h-9z"/><path d="M88.281 396.187a4.227 4.227 0 0 1 4.219 4.235 4.227 4.227 0 0 1-4.219 4.234 4.227 4.227 0 0 1-4.219-4.234 4.226 4.226 0 0 1 4.22-4.235z"/></mask><filter id="ctl2d" width="39" height="42" x="69" y="381" filterUnits="userSpaceOnUse"><feOffset dy="3" in="SourceGraphic" result="FeOffset1107Out"/><feGaussianBlur in="FeOffset1107Out" result="FeGaussianBlur1108Out" stdDeviation="2 2"/></filter><clipPath id="ctl2f"><path fill="#fff" d="M88.281 396.187a4.227 4.227 0 0 1 4.219 4.235 4.227 4.227 0 0 1-4.219 4.234 4.227 4.227 0 0 1-4.219-4.234 4.226 4.226 0 0 1 4.22-4.235z"/></clipPath><mask id="ctl2h" width="2" height="2" x="-1" y="-1"><path fill="#fff" d="M13 51h10v10H13z"/><path d="M19.04 56.164l2.915 3.047a.981.981 0 0 1 0 1.344.881.881 0 0 1-1.287 0l-2.914-3.046-2.914 3.046a.881.881 0 0 1-1.287 0 .981.981 0 0 1 0-1.344l2.915-3.047-2.915-3.046a.982.982 0 0 1 0-1.345.883.883 0 0 1 1.287 0l2.914 3.047 2.914-3.047a.883.883 0 0 1 1.287 0 .982.982 0 0 1 0 1.345z"/></mask><filter id="ctl2g" width="40" height="43" x="-2" y="36" filterUnits="userSpaceOnUse"><feOffset dy="3" in="SourceGraphic" result="FeOffset1125Out"/><feGaussianBlur in="FeOffset1125Out" result="FeGaussianBlur1126Out" stdDeviation="2 2"/></filter><mask id="ctl2j" width="2" height="2" x="-1" y="-1"><path fill="#fff" d="M9 243h9v9H9z"/><path d="M13.613 251.811l-4.344-4.354 4.344-4.354 4.344 4.354z"/></mask><filter id="ctl2i" width="39" height="42" x="-6" y="228" filterUnits="userSpaceOnUse"><feOffset dy="3" in="SourceGraphic" result="FeOffset1141Out"/><feGaussianBlur in="FeOffset1141Out" result="FeGaussianBlur1142Out" stdDeviation="2 2"/></filter><mask id="ctl2l" width="2" height="2" x="-1" y="-1"><path fill="#fff" d="M137 290h10v10h-10z"/><path d="M143.473 295.203l2.914 3.046a.982.982 0 0 1 0 1.345.882.882 0 0 1-1.286 0l-2.914-3.046-2.915 3.046a.882.882 0 0 1-1.286 0 .982.982 0 0 1 0-1.345l2.914-3.046-2.914-3.045a.982.982 0 0 1 0-1.345.882.882 0 0 1 1.286 0l2.915 3.046 2.914-3.046a.882.882 0 0 1 1.286 0 .982.982 0 0 1 0 1.345z"/></mask><filter id="ctl2k" width="40" height="43" x="122" y="275" filterUnits="userSpaceOnUse"><feOffset dy="3" in="SourceGraphic" result="FeOffset1157Out"/><feGaussianBlur in="FeOffset1157Out" result="FeGaussianBlur1158Out" stdDeviation="2 2"/></filter><mask id="ctl2n" width="2" height="2" x="-1" y="-1"><path fill="#fff" d="M142 2h10v11h-10z"/><path d="M148.464 7.392l2.915 3.046a.982.982 0 0 1 0 1.345.883.883 0 0 1-1.287 0l-2.914-3.046-2.914 3.046a.883.883 0 0 1-1.287 0 .982.982 0 0 1 0-1.345l2.914-3.046-2.914-3.045a.982.982 0 0 1 0-1.345.881.881 0 0 1 1.287 0l2.914 3.046 2.914-3.046a.881.881 0 0 1 1.287 0 .982.982 0 0 1 0 1.345z"/></mask><filter id="ctl2m" width="40" height="44" x="127" y="-13" filterUnits="userSpaceOnUse"><feOffset dy="3" in="SourceGraphic" result="FeOffset1173Out"/><feGaussianBlur in="FeOffset1173Out" result="FeGaussianBlur1174Out" stdDeviation="2 2"/></filter><mask id="ctl2p" width="2" height="2" x="-1" y="-1"><path fill="#fff" d="M32 527h9v11h-9z"/><path d="M37.742 532.594l2.914 3.046a.982.982 0 0 1 0 1.345.881.881 0 0 1-1.286 0l-2.915-3.046-2.914 3.046a.881.881 0 0 1-1.287 0 .982.982 0 0 1 0-1.345l2.915-3.046-2.915-3.046a.982.982 0 0 1 0-1.345.882.882 0 0 1 1.287 0l2.914 3.046 2.915-3.046a.882.882 0 0 1 1.286 0 .982.982 0 0 1 0 1.345z"/></mask><filter id="ctl2o" width="39" height="44" x="17" y="512" filterUnits="userSpaceOnUse"><feOffset dy="3" in="SourceGraphic" result="FeOffset1189Out"/><feGaussianBlur in="FeOffset1189Out" result="FeGaussianBlur1190Out" stdDeviation="2 2"/></filter></defs><g><g><g filter="url(#ctl2a)"><path fill="none" d="M59.328 138.937c7.43 0 13.453 6.198 13.453 13.844 0 7.646-6.023 13.844-13.453 13.844s-13.453-6.198-13.453-13.844c0-7.646 6.023-13.844 13.453-13.844z" mask="url(&quot;#ctl2b&quot;)"/><path fill="#fe3e57" fill-opacity=".4" d="M59.328 138.937c7.43 0 13.453 6.198 13.453 13.844 0 7.646-6.023 13.844-13.453 13.844s-13.453-6.198-13.453-13.844c0-7.646 6.023-13.844 13.453-13.844z"/></g><path fill="none" stroke="#fe3e57" stroke-miterlimit="20" stroke-width="4" d="M59.328 138.937c7.43 0 13.453 6.198 13.453 13.844 0 7.646-6.023 13.844-13.453 13.844s-13.453-6.198-13.453-13.844c0-7.646 6.023-13.844 13.453-13.844z" clip-path="url(&quot;#ctl2c&quot;)"/></g><g><g filter="url(#ctl2d)"><path fill="none" d="M88.281 396.187a4.227 4.227 0 0 1 4.219 4.235 4.227 4.227 0 0 1-4.219 4.234 4.227 4.227 0 0 1-4.219-4.234 4.226 4.226 0 0 1 4.22-4.235z" mask="url(&quot;#ctl2e&quot;)"/><path fill="#34c3ff" fill-opacity=".4" d="M88.281 396.187a4.227 4.227 0 0 1 4.219 4.235 4.227 4.227 0 0 1-4.219 4.234 4.227 4.227 0 0 1-4.219-4.234 4.226 4.226 0 0 1 4.22-4.235z"/></g><path fill="none" stroke="#34c3ff" stroke-miterlimit="20" stroke-width="4" d="M88.281 396.187a4.227 4.227 0 0 1 4.219 4.235 4.227 4.227 0 0 1-4.219 4.234 4.227 4.227 0 0 1-4.219-4.234 4.226 4.226 0 0 1 4.22-4.235z" clip-path="url(&quot;#ctl2f&quot;)"/></g><g><g filter="url(#ctl2g)"><path fill="none" d="M19.04 56.164l2.915 3.047a.981.981 0 0 1 0 1.344.881.881 0 0 1-1.287 0l-2.914-3.046-2.914 3.046a.881.881 0 0 1-1.287 0 .981.981 0 0 1 0-1.344l2.915-3.047-2.915-3.046a.982.982 0 0 1 0-1.345.883.883 0 0 1 1.287 0l2.914 3.047 2.914-3.047a.883.883 0 0 1 1.287 0 .982.982 0 0 1 0 1.345z" mask="url(&quot;#ctl2h&quot;)"/><path fill="#34c3ff" fill-opacity=".4" d="M19.04 56.164l2.915 3.047a.981.981 0 0 1 0 1.344.881.881 0 0 1-1.287 0l-2.914-3.046-2.914 3.046a.881.881 0 0 1-1.287 0 .981.981 0 0 1 0-1.344l2.915-3.047-2.915-3.046a.982.982 0 0 1 0-1.345.883.883 0 0 1 1.287 0l2.914 3.047 2.914-3.047a.883.883 0 0 1 1.287 0 .982.982 0 0 1 0 1.345z"/></g><path fill="#34c3ff" d="M19.04 56.164l2.915 3.047a.981.981 0 0 1 0 1.344.881.881 0 0 1-1.287 0l-2.914-3.046-2.914 3.046a.881.881 0 0 1-1.287 0 .981.981 0 0 1 0-1.344l2.915-3.047-2.915-3.046a.982.982 0 0 1 0-1.345.883.883 0 0 1 1.287 0l2.914 3.047 2.914-3.047a.883.883 0 0 1 1.287 0 .982.982 0 0 1 0 1.345z"/></g><g><g filter="url(#ctl2i)"><path fill="none" d="M13.613 251.811l-4.344-4.354 4.344-4.354 4.344 4.354z" mask="url(&quot;#ctl2j&quot;)"/><path fill="#5800e4" fill-opacity=".4" d="M13.613 251.811l-4.344-4.354 4.344-4.354 4.344 4.354z"/></g><path fill="#5800e4" d="M13.613 251.811l-4.344-4.354 4.344-4.354 4.344 4.354z"/></g><g><g filter="url(#ctl2k)"><path fill="none" d="M143.473 295.203l2.914 3.046a.982.982 0 0 1 0 1.345.882.882 0 0 1-1.286 0l-2.914-3.046-2.915 3.046a.882.882 0 0 1-1.286 0 .982.982 0 0 1 0-1.345l2.914-3.046-2.914-3.045a.982.982 0 0 1 0-1.345.882.882 0 0 1 1.286 0l2.915 3.046 2.914-3.046a.882.882 0 0 1 1.286 0 .982.982 0 0 1 0 1.345z" mask="url(&quot;#ctl2l&quot;)"/><path fill="#ffb534" fill-opacity=".4" d="M143.473 295.203l2.914 3.046a.982.982 0 0 1 0 1.345.882.882 0 0 1-1.286 0l-2.914-3.046-2.915 3.046a.882.882 0 0 1-1.286 0 .982.982 0 0 1 0-1.345l2.914-3.046-2.914-3.045a.982.982 0 0 1 0-1.345.882.882 0 0 1 1.286 0l2.915 3.046 2.914-3.046a.882.882 0 0 1 1.286 0 .982.982 0 0 1 0 1.345z"/></g><path fill="#ffb534" d="M143.473 295.203l2.914 3.046a.982.982 0 0 1 0 1.345.882.882 0 0 1-1.286 0l-2.914-3.046-2.915 3.046a.882.882 0 0 1-1.286 0 .982.982 0 0 1 0-1.345l2.914-3.046-2.914-3.045a.982.982 0 0 1 0-1.345.882.882 0 0 1 1.286 0l2.915 3.046 2.914-3.046a.882.882 0 0 1 1.286 0 .982.982 0 0 1 0 1.345z"/></g><g><g filter="url(#ctl2m)"><path fill="none" d="M148.464 7.392l2.915 3.046a.982.982 0 0 1 0 1.345.883.883 0 0 1-1.287 0l-2.914-3.046-2.914 3.046a.883.883 0 0 1-1.287 0 .982.982 0 0 1 0-1.345l2.914-3.046-2.914-3.045a.982.982 0 0 1 0-1.345.881.881 0 0 1 1.287 0l2.914 3.046 2.914-3.046a.881.881 0 0 1 1.287 0 .982.982 0 0 1 0 1.345z" mask="url(&quot;#ctl2n&quot;)"/><path fill="#ffb534" fill-opacity=".4" d="M148.464 7.392l2.915 3.046a.982.982 0 0 1 0 1.345.883.883 0 0 1-1.287 0l-2.914-3.046-2.914 3.046a.883.883 0 0 1-1.287 0 .982.982 0 0 1 0-1.345l2.914-3.046-2.914-3.045a.982.982 0 0 1 0-1.345.881.881 0 0 1 1.287 0l2.914 3.046 2.914-3.046a.881.881 0 0 1 1.287 0 .982.982 0 0 1 0 1.345z"/></g><path fill="#ffb534" d="M148.464 7.392l2.915 3.046a.982.982 0 0 1 0 1.345.883.883 0 0 1-1.287 0l-2.914-3.046-2.914 3.046a.883.883 0 0 1-1.287 0 .982.982 0 0 1 0-1.345l2.914-3.046-2.914-3.045a.982.982 0 0 1 0-1.345.881.881 0 0 1 1.287 0l2.914 3.046 2.914-3.046a.881.881 0 0 1 1.287 0 .982.982 0 0 1 0 1.345z"/></g><g><g filter="url(#ctl2o)"><path fill="none" d="M37.742 532.594l2.914 3.046a.982.982 0 0 1 0 1.345.881.881 0 0 1-1.286 0l-2.915-3.046-2.914 3.046a.881.881 0 0 1-1.287 0 .982.982 0 0 1 0-1.345l2.915-3.046-2.915-3.046a.982.982 0 0 1 0-1.345.882.882 0 0 1 1.287 0l2.914 3.046 2.915-3.046a.882.882 0 0 1 1.286 0 .982.982 0 0 1 0 1.345z" mask="url(&quot;#ctl2p&quot;)"/><path fill="#fe3e57" fill-opacity=".4" d="M37.742 532.594l2.914 3.046a.982.982 0 0 1 0 1.345.881.881 0 0 1-1.286 0l-2.915-3.046-2.914 3.046a.881.881 0 0 1-1.287 0 .982.982 0 0 1 0-1.345l2.915-3.046-2.915-3.046a.982.982 0 0 1 0-1.345.882.882 0 0 1 1.287 0l2.914 3.046 2.915-3.046a.882.882 0 0 1 1.286 0 .982.982 0 0 1 0 1.345z"/></g><path fill="#fe3e57" d="M37.742 532.594l2.914 3.046a.982.982 0 0 1 0 1.345.881.881 0 0 1-1.286 0l-2.915-3.046-2.914 3.046a.881.881 0 0 1-1.287 0 .982.982 0 0 1 0-1.345l2.915-3.046-2.915-3.046a.982.982 0 0 1 0-1.345.882.882 0 0 1 1.287 0l2.914 3.046 2.915-3.046a.882.882 0 0 1 1.286 0 .982.982 0 0 1 0 1.345z"/></g></g></svg>